# xmcd
#
# Track frame offsets: 
#        150
#        19579
#        38143
#        52358
#        74695
#        92682
#        114604
#        141311
#        155366
#        168937
#        188239
#        199099
#        212700
#        232192
#        245616
#        259948
#
# Disc length: 3709 seconds
#
# Revision: 0
# Processed by: cddbd v1.5.2PL0 Copyright (c) Steve Scherf et al.
# Submitted via: ExactAudioCopy v1.2
#
DISCID=f20e7b10
DTITLE=Ryan Foret and Foret Tradition - Louisiana Soul
DYEAR=2018
DGENRE=Blues
TTITLE0=Can’t Turn You Loose
TTITLE1=Going Home Tomorrow - Poor Me
TTITLE2=Mother-in-Law (feat. Mike Broussard Sr)
TTITLE3=Reconsider Me
TTITLE4=Without Question
TTITLE5=Louisiana 1927 (feat. Eddie Smith)
TTITLE6=Rock n Roll Medley
TTITLE7=Lawdy Miss Clawdy
TTITLE8=Rip It Up
TTITLE9=Guilty of Loving You
TTITLE10=Tell Me That You Love Me
TTITLE11=Shake a Tailfeather
TTITLE12=You Send Me
TTITLE13=Barefootin’
TTITLE14=I Want to Do Everything for You
TTITLE15=Dive
EXTD=
EXTT0=
EXTT1=
EXTT2=
EXTT3=
EXTT4=
EXTT5=
EXTT6=
EXTT7=
EXTT8=
EXTT9=
EXTT10=
EXTT11=
EXTT12=
EXTT13=
EXTT14=
EXTT15=
PLAYORDER=
